<svg width="21" height="16" viewBox="0 0 21 16" fill="none" xmlns="http://www.w3.org/2000/svg">
<path d="M20.6001 2.10165L18.6351 0.136669C18.5483 0.0497796 18.4297 0 18.3066 0C18.1835 0.000905041 18.0658 0.0497796 17.9798 0.136669L7.16568 10.9508L2.76328 6.54842C2.67639 6.46153 2.55873 6.41265 2.43563 6.41265C2.31252 6.41265 2.19486 6.46153 2.10797 6.54842L0.135765 8.50614C0.0488759 8.59303 0 8.7107 0 8.8338C0 8.9569 0.0488759 9.07547 0.135765 9.16236L6.839 15.8656C7.02002 16.0448 7.31147 16.0448 7.49248 15.8656L20.6 2.75802C20.6869 2.67113 20.7358 2.55256 20.7358 2.42946C20.7358 2.30728 20.687 2.18854 20.6001 2.10165Z" fill="#00FFA3"/>
</svg>
