<svg width="24" height="24" viewBox="0 0 24 24" fill="none" xmlns="http://www.w3.org/2000/svg">
<path d="M0.184682 3.52864C-0.0615571 3.77488 -0.0615639 4.17412 0.184682 4.42036L7.76432 12L0.184682 19.5796C-0.0615571 19.8259 -0.0615639 20.2251 0.184682 20.4714L3.52864 23.8153C3.77489 24.0616 4.17412 24.0616 4.42036 23.8153L12 16.2357L19.5796 23.8153C19.8259 24.0616 20.2251 24.0616 20.4714 23.8153L23.8153 20.4714C24.0616 20.2251 24.0616 19.8259 23.8153 19.5796L16.2357 12L23.8153 4.42036C24.0616 4.17412 24.0616 3.77489 23.8153 3.52864L20.4714 0.184682C20.2251 -0.0615639 19.8259 -0.0615571 19.5796 0.184682L12 7.76432L4.42036 0.184682C4.17412 -0.0615639 3.77488 -0.0615571 3.52864 0.184682L0.184682 3.52864Z" fill="white"/>
</svg>
