<svg width="142" height="56" viewBox="0 0 142 56" fill="none" xmlns="http://www.w3.org/2000/svg">
<g clip-path="url(#clip0_36_219)">
<path d="M6.352 14.192C5.296 14.192 4.34133 13.952 3.488 13.472C2.63467 12.992 1.95733 12.3093 1.456 11.424C0.954667 10.528 0.704 9.472 0.704 8.256C0.704 7.33867 0.848 6.512 1.136 5.776C1.424 5.04 1.824 4.416 2.336 3.904C2.848 3.38133 3.44533 2.98133 4.128 2.704C4.82133 2.42667 5.56267 2.288 6.352 2.288C7.312 2.288 8.14933 2.45333 8.864 2.784C9.57867 3.104 10.16 3.57333 10.608 4.192C11.0667 4.8 11.3813 5.53067 11.552 6.384L9.52 6.816C9.392 6.28267 9.18933 5.81867 8.912 5.424C8.64533 5.02933 8.304 4.72533 7.888 4.512C7.472 4.288 6.976 4.176 6.4 4.176C5.65333 4.176 5.008 4.34133 4.464 4.672C3.93067 5.00267 3.52 5.472 3.232 6.08C2.95467 6.688 2.816 7.41333 2.816 8.256C2.816 9.088 2.96 9.808 3.248 10.416C3.536 11.024 3.94667 11.4933 4.48 11.824C5.024 12.144 5.664 12.304 6.4 12.304C6.96533 12.304 7.45067 12.2133 7.856 12.032C8.272 11.84 8.61867 11.552 8.896 11.168C9.184 10.7733 9.408 10.2827 9.568 9.696L11.552 10.224C11.3813 11.024 11.072 11.7227 10.624 12.32C10.176 12.9067 9.59467 13.3653 8.88 13.696C8.16533 14.0267 7.32267 14.192 6.352 14.192ZM13.1505 14V5.68H15.0225V7.152H15.1185C15.3425 6.66133 15.6732 6.26133 16.1105 5.952C16.5478 5.64267 17.0865 5.488 17.7265 5.488H18.2705V7.44H17.5665C16.7878 7.44 16.1745 7.664 15.7265 8.112C15.2892 8.56 15.0705 9.25867 15.0705 10.208V14H13.1505ZM23.2055 14.192C22.4162 14.192 21.7122 14.016 21.0935 13.664C20.4748 13.312 19.9895 12.8107 19.6375 12.16C19.2962 11.4987 19.1255 10.7253 19.1255 9.84C19.1255 9.008 19.3015 8.26667 19.6535 7.616C20.0055 6.95467 20.4908 6.43733 21.1095 6.064C21.7282 5.68 22.4322 5.488 23.2215 5.488C24.0002 5.488 24.6775 5.65867 25.2535 6C25.8402 6.34133 26.2935 6.85333 26.6135 7.536C26.9335 8.21867 27.0935 9.072 27.0935 10.096V10.48H20.2455V9.072H25.4455L25.0775 9.36C25.0775 8.96533 25.0082 8.608 24.8695 8.288C24.7308 7.968 24.5228 7.712 24.2455 7.52C23.9682 7.31733 23.6215 7.216 23.2055 7.216C22.8002 7.216 22.4375 7.312 22.1175 7.504C21.7975 7.696 21.5468 7.984 21.3655 8.368C21.1842 8.752 21.0935 9.24267 21.0935 9.84C21.0935 10.416 21.1788 10.9013 21.3495 11.296C21.5202 11.68 21.7655 11.9733 22.0855 12.176C22.4055 12.368 22.7788 12.464 23.2055 12.464C23.6962 12.464 24.0748 12.3627 24.3415 12.16C24.6188 11.9467 24.8482 11.6587 25.0295 11.296L26.8055 11.984C26.5388 12.6347 26.1282 13.168 25.5735 13.584C25.0295 13.9893 24.2402 14.192 23.2055 14.192ZM31.174 14.192C30.3313 14.192 29.6593 13.968 29.158 13.52C28.6673 13.0613 28.422 12.4587 28.422 11.712C28.422 10.976 28.6673 10.384 29.158 9.936C29.6487 9.47733 30.3473 9.21067 31.254 9.136L34.23 8.864V10.208L31.574 10.496C31.158 10.5387 30.8487 10.656 30.646 10.848C30.4433 11.0293 30.342 11.2747 30.342 11.584C30.342 11.8827 30.4487 12.128 30.662 12.32C30.886 12.512 31.1953 12.608 31.59 12.608C31.9953 12.608 32.3527 12.5067 32.662 12.304C32.982 12.0907 33.2273 11.7653 33.398 11.328C33.5793 10.88 33.67 10.3093 33.67 9.616V8.608C33.67 8.20267 33.5473 7.86667 33.302 7.6C33.0673 7.33333 32.678 7.2 32.134 7.2C31.59 7.2 31.1953 7.312 30.95 7.536C30.7047 7.76 30.5607 8.016 30.518 8.304H28.614C28.646 7.76 28.806 7.28 29.094 6.864C29.382 6.43733 29.7873 6.10133 30.31 5.856C30.8327 5.61067 31.4567 5.488 32.182 5.488C33.2593 5.488 34.0967 5.776 34.694 6.352C35.2913 6.91733 35.59 7.648 35.59 8.544V12.176L35.638 14H33.83L33.782 12.88H33.654C33.3553 13.328 32.998 13.6587 32.582 13.872C32.1767 14.0853 31.7073 14.192 31.174 14.192ZM40.4996 14.032C39.6996 14.032 39.097 13.824 38.6916 13.408C38.297 12.9813 38.0996 12.384 38.0996 11.616V3.408H40.0196V11.488C40.0196 11.9893 40.2756 12.24 40.7876 12.24H42.1156V14.032H40.4996ZM36.6276 7.28V5.68H41.9556V7.28H36.6276ZM47.0649 14.192C46.2755 14.192 45.5715 14.016 44.9529 13.664C44.3342 13.312 43.8489 12.8107 43.4969 12.16C43.1555 11.4987 42.9849 10.7253 42.9849 9.84C42.9849 9.008 43.1609 8.26667 43.5129 7.616C43.8649 6.95467 44.3502 6.43733 44.9689 6.064C45.5875 5.68 46.2915 5.488 47.0809 5.488C47.8595 5.488 48.5369 5.65867 49.1129 6C49.6995 6.34133 50.1529 6.85333 50.4729 7.536C50.7929 8.21867 50.9529 9.072 50.9529 10.096V10.48H44.1049V9.072H49.3049L48.9369 9.36C48.9369 8.96533 48.8675 8.608 48.7289 8.288C48.5902 7.968 48.3822 7.712 48.1049 7.52C47.8275 7.31733 47.4809 7.216 47.0649 7.216C46.6595 7.216 46.2969 7.312 45.9769 7.504C45.6569 7.696 45.4062 7.984 45.2249 8.368C45.0435 8.752 44.9529 9.24267 44.9529 9.84C44.9529 10.416 45.0382 10.9013 45.2089 11.296C45.3795 11.68 45.6249 11.9733 45.9449 12.176C46.2649 12.368 46.6382 12.464 47.0649 12.464C47.5555 12.464 47.9342 12.3627 48.2009 12.16C48.4782 11.9467 48.7075 11.6587 48.8889 11.296L50.6649 11.984C50.3982 12.6347 49.9875 13.168 49.4329 13.584C48.8889 13.9893 48.0995 14.192 47.0649 14.192ZM55.9454 14.192C55.2734 14.192 54.66 14.016 54.1054 13.664C53.5507 13.312 53.108 12.8107 52.7774 12.16C52.4574 11.5093 52.2974 10.736 52.2974 9.84C52.2974 8.944 52.4574 8.17067 52.7774 7.52C53.108 6.86933 53.5507 6.368 54.1054 6.016C54.66 5.664 55.2734 5.488 55.9454 5.488C56.5534 5.488 57.06 5.61067 57.4654 5.856C57.8707 6.10133 58.2174 6.42667 58.5054 6.832H58.6014V2.48H60.5214V14H58.6494V12.848H58.5534C58.2654 13.2853 57.908 13.6213 57.4814 13.856C57.0547 14.08 56.5427 14.192 55.9454 14.192ZM56.4574 12.432C57.14 12.432 57.6787 12.2027 58.0734 11.744C58.468 11.2853 58.6654 10.6507 58.6654 9.84C58.6654 9.01867 58.468 8.384 58.0734 7.936C57.6787 7.47733 57.14 7.248 56.4574 7.248C55.8174 7.248 55.2947 7.48267 54.8894 7.952C54.484 8.41067 54.2814 9.04 54.2814 9.84C54.2814 10.64 54.484 11.2747 54.8894 11.744C55.2947 12.2027 55.8174 12.432 56.4574 12.432ZM68.1694 14L65.6734 5.68H67.7374L69.3854 11.488H69.5134L71.1774 5.68H73.5134L75.1934 11.488H75.3214L76.9694 5.68H78.9054L76.4574 14H74.0734L72.4254 8.352H72.2494L70.6014 14H68.1694ZM80.0568 14V5.68H81.9768V14H80.0568ZM79.8488 3.44C79.8488 3.09867 79.9554 2.82133 80.1688 2.608C80.3928 2.39467 80.6754 2.288 81.0168 2.288C81.3581 2.288 81.6354 2.39467 81.8488 2.608C82.0728 2.82133 82.1848 3.09867 82.1848 3.44C82.1848 3.76 82.0728 4.032 81.8488 4.256C81.6354 4.46933 81.3581 4.576 81.0168 4.576C80.6754 4.576 80.3928 4.46933 80.1688 4.256C79.9554 4.032 79.8488 3.76 79.8488 3.44ZM87.0465 14.032C86.2465 14.032 85.6438 13.824 85.2385 13.408C84.8438 12.9813 84.6465 12.384 84.6465 11.616V3.408H86.5665V11.488C86.5665 11.9893 86.8225 12.24 87.3345 12.24H88.6625V14.032H87.0465ZM83.1745 7.28V5.68H88.5025V7.28H83.1745ZM90.088 14V2.48H92.008V6.8H92.104C92.3493 6.39467 92.6693 6.07467 93.064 5.84C93.4587 5.60533 93.9173 5.488 94.44 5.488C94.9947 5.488 95.4853 5.61067 95.912 5.856C96.3387 6.09067 96.6693 6.44267 96.904 6.912C97.1493 7.37067 97.272 7.936 97.272 8.608V14H95.352V8.96C95.352 8.39467 95.2187 7.97867 94.952 7.712C94.6853 7.43467 94.328 7.296 93.88 7.296C93.528 7.296 93.208 7.392 92.92 7.584C92.6427 7.76533 92.4187 8.03733 92.248 8.4C92.088 8.76267 92.008 9.21067 92.008 9.744V14H90.088Z" fill="white"/>
<path d="M44.8 50.8388V29.1613H54.886C56.4516 29.1613 57.7864 29.4624 58.8904 30.0645C59.9943 30.6667 60.8373 31.4896 61.4194 32.5334C62.0216 33.557 62.3226 34.7312 62.3226 36.0559C62.3226 37.4007 62.0216 38.5749 61.4194 39.5785C60.8373 40.5821 59.9843 41.3649 58.8603 41.9269C57.7363 42.4889 56.3814 42.7699 54.7957 42.7699H48.2022V38.8259H54.4947C55.438 38.8259 56.1807 38.585 56.7226 38.1032C57.2846 37.6215 57.5656 36.9391 57.5656 36.0559C57.5656 35.1727 57.2947 34.4903 56.7528 34.0087C56.2108 33.5068 55.4782 33.2559 54.5549 33.2559H48.2624L49.4667 32.3527V50.8388H44.8ZM57.385 50.8388L51.3032 40.7527H56.3312L62.8947 50.8388H57.385Z" fill="white"/>
<path d="M71.2013 51.2C69.6558 51.2 68.2808 50.8789 67.0765 50.2366C65.8923 49.5742 64.959 48.6308 64.2765 47.4065C63.6142 46.162 63.283 44.6968 63.283 43.0107C63.283 41.5054 63.6142 40.1405 64.2765 38.9162C64.9389 37.6717 65.8522 36.6782 67.0163 35.9355C68.2006 35.1928 69.5754 34.8215 71.141 34.8215C72.7066 34.8215 74.0514 35.1627 75.1754 35.8452C76.2994 36.5276 77.1525 37.5111 77.7345 38.7957C78.3367 40.0803 78.6378 41.6259 78.6378 43.4323V44.2452H65.9926V41.5355H74.8142L74.1217 42.2279C74.1217 41.5255 74.0113 40.8932 73.7905 40.3312C73.5898 39.7692 73.2686 39.3276 72.827 39.0065C72.3854 38.6652 71.8234 38.4947 71.141 38.4947C70.4385 38.4947 69.8263 38.6552 69.3045 38.9763C68.8026 39.2975 68.4113 39.7993 68.1302 40.4817C67.8694 41.1441 67.7389 41.9871 67.7389 43.0107C67.7389 44.0344 67.8794 44.8775 68.1604 45.5398C68.4414 46.2022 68.8428 46.6939 69.3647 47.0151C69.8866 47.3363 70.4987 47.4968 71.2013 47.4968C71.9439 47.4968 72.536 47.3363 72.9776 47.0151C73.4392 46.6739 73.8106 46.2323 74.0916 45.6903L78.0958 47.1957C77.574 48.3799 76.7812 49.3434 75.7174 50.086C74.6536 50.8287 73.1482 51.2 71.2013 51.2Z" fill="white"/>
<path d="M81.708 50.8387V33.9182C81.708 32.3125 82.14 31.0581 83.0032 30.1548C83.8664 29.2516 85.1504 28.8 86.8568 28.8H89.356V32.7441H87.4288C86.5456 32.7441 86.104 33.1957 86.104 34.0989V50.8387H81.708ZM79.089 38.6753V35.1828H89.356V38.6753H79.089ZM91.192 50.8387V29.1613H95.588V50.8387H91.192Z" fill="white"/>
<path d="M105.589 51.2C104.043 51.2 102.668 50.8789 101.464 50.2366C100.279 49.5742 99.3463 48.6308 98.6639 47.4065C98.0015 46.162 97.6703 44.6968 97.6703 43.0107C97.6703 41.5054 98.0015 40.1405 98.6639 38.9162C99.3263 37.6717 100.239 36.6782 101.403 35.9355C102.588 35.1928 103.962 34.8215 105.528 34.8215C107.093 34.8215 108.438 35.1627 109.562 35.8452C110.686 36.5276 111.54 37.5111 112.121 38.7957C112.724 40.0803 113.025 41.6259 113.025 43.4323V44.2452H100.38V41.5355H109.201L108.509 42.2279C108.509 41.5255 108.398 40.8932 108.177 40.3312C107.977 39.7692 107.656 39.3276 107.214 39.0065C106.773 38.6652 106.21 38.4947 105.528 38.4947C104.825 38.4947 104.213 38.6552 103.692 38.9763C103.189 39.2975 102.798 39.7993 102.517 40.4817C102.257 41.1441 102.126 41.9871 102.126 43.0107C102.126 44.0344 102.266 44.8775 102.548 45.5398C102.829 46.2022 103.23 46.6939 103.752 47.0151C104.273 47.3363 104.886 47.4968 105.589 47.4968C106.331 47.4968 106.923 47.3363 107.365 47.0151C107.826 46.6739 108.197 46.2323 108.479 45.6903L112.483 47.1957C111.961 48.3799 111.169 49.3434 110.105 50.086C109.041 50.8287 107.535 51.2 105.589 51.2Z" fill="white"/>
<path d="M122.448 51.2C120.923 51.2 119.548 50.8789 118.323 50.2366C117.099 49.5742 116.126 48.6308 115.403 47.4065C114.701 46.1821 114.35 44.7169 114.35 43.0107C114.35 41.3047 114.701 39.8395 115.403 38.6151C116.126 37.3907 117.099 36.4574 118.323 35.8151C119.548 35.1527 120.923 34.8215 122.448 34.8215C124.516 34.8215 126.192 35.3434 127.476 36.3871C128.781 37.4308 129.594 38.8259 129.915 40.5721L125.519 41.4151C125.358 40.6323 125.018 40.01 124.495 39.5484C123.994 39.0867 123.311 38.8559 122.448 38.8559C121.746 38.8559 121.134 39.0165 120.612 39.3376C120.09 39.6588 119.678 40.1305 119.378 40.7527C119.096 41.3548 118.956 42.1075 118.956 43.0107C118.956 43.8939 119.096 44.6466 119.378 45.2688C119.678 45.8911 120.09 46.3627 120.612 46.6839C121.134 47.0051 121.746 47.1656 122.448 47.1656C123.291 47.1656 123.964 46.9448 124.466 46.5032C124.967 46.0617 125.329 45.4194 125.55 44.5763L129.885 45.5699C129.644 46.7542 129.202 47.7678 128.56 48.6107C127.938 49.4538 127.115 50.0961 126.091 50.5376C125.088 50.9792 123.874 51.2 122.448 51.2Z" fill="white"/>
<path d="M137.746 50.899C136.019 50.899 134.734 50.4473 133.891 49.5441C133.069 48.6409 132.657 47.4065 132.657 45.8409V30.9075H137.053V45.4796C137.053 46.4029 137.534 46.8645 138.498 46.8645H140.966V50.899H137.746ZM130.038 38.6753V35.1828H140.666V38.6753H130.038Z" fill="white"/>
<path d="M19.6643 31.082H23.6744L16 38.7564L7.70561 30.462L12.8719 25.2957C14.5995 23.5681 17.4006 23.5681 19.1282 25.2957C20.4566 26.6242 20.7643 28.5886 20.048 30.2118L19.6643 31.082Z" fill="white"/>
<path d="M12.3357 48.9181H8.32562L16 41.2437L24.2944 49.5381L19.1281 54.7043C17.4006 56.4319 14.5995 56.4319 12.8718 54.7042C11.5434 53.3759 11.2357 51.4114 11.952 49.7883L12.3357 48.9181Z" fill="white"/>
<path d="M17.2437 40L24.918 32.3256V36.3359L25.7884 35.952C27.4116 35.2356 29.3759 35.5434 30.7042 36.8719C32.4319 38.5995 32.4319 41.4006 30.7042 43.1282L25.5381 48.2944L17.2437 40Z" fill="white"/>
<path d="M7.08198 43.6643V47.6744L14.7563 40L6.46196 31.7056L1.29574 36.8719C-0.431914 38.5995 -0.431914 41.4006 1.29575 43.1282C2.62418 44.4566 4.58863 44.7643 6.21177 44.048L7.08198 43.6643Z" fill="white"/>
</g>
<defs>
<clipPath id="clip0_36_219">
<rect width="142" height="56" fill="white"/>
</clipPath>
</defs>
</svg>
