<svg width="32" height="32" viewBox="0 0 32 32" fill="none" xmlns="http://www.w3.org/2000/svg">
<path d="M13.9608 20.5171C13.9069 21.4551 13.8993 22.4005 13.9843 23.3396C14.0758 24.326 14.2276 25.3125 14.5635 26.2483C14.9339 27.2832 15.4379 28.2017 16.1604 29.0372C16.7452 29.7131 17.485 30.2877 18.2495 30.7448C21.2056 32.5073 25.1677 32.4263 27.9978 30.4337C28.7452 29.9054 29.4323 29.3038 29.9967 28.5792C30.3015 28.1835 30.5977 27.7835 30.8422 27.3447C31.0791 26.9178 31.2698 26.4682 31.4453 26.0122C32.0571 24.4295 32.138 22.6625 31.8096 21.0076C31.4684 19.2902 30.5682 17.6623 29.3363 16.4291C28.1087 15.2045 26.4643 14.4704 24.7703 14.1697C23.0666 13.8701 21.3403 13.8885 19.6226 14.0406C18.0126 14.1863 16.4058 14.4042 14.8001 14.6253C14.4253 14.6771 14.057 14.7266 13.6822 14.7741C13.8114 14.7569 13.9407 14.7418 14.0699 14.7267C12.1292 14.9812 10.1595 15.1592 8.21581 14.9169C8.34503 14.9342 8.47427 14.9493 8.6035 14.9643C7.79583 14.863 6.9989 14.6777 6.24291 14.3737C6.36352 14.4254 6.48844 14.4728 6.60906 14.5246C6.062 14.3004 5.54723 14.0179 5.07987 13.6579C5.18756 13.7398 5.29847 13.8228 5.40294 13.9058C4.9345 13.5447 4.52531 13.1135 4.16457 12.6445C4.24641 12.7523 4.32932 12.8634 4.41225 12.9679C4.00845 12.4343 3.67139 11.8554 3.41835 11.2355C3.47003 11.3563 3.51741 11.4813 3.5691 11.6021C3.32466 10.9951 3.15348 10.3623 3.06737 9.71541C3.0846 9.84478 3.09966 9.97415 3.11473 10.1035C3.03184 9.44263 3.03188 8.77423 3.11485 8.11548C3.09762 8.24486 3.08253 8.37423 3.06744 8.5036C3.15579 7.8546 3.31951 7.22065 3.56941 6.6169C3.51771 6.73765 3.47031 6.86271 3.41861 6.98346C3.67387 6.3657 4.00883 5.78456 4.41273 5.2509C4.33088 5.35872 4.24795 5.46977 4.165 5.57436C4.57534 5.04068 5.05138 4.56412 5.58662 4.15119C5.47892 4.23313 5.368 4.31615 5.26352 4.39918C5.79662 3.99487 6.37496 3.65737 6.99419 3.40398C6.87357 3.45574 6.74864 3.50318 6.62802 3.55494C7.23436 3.31016 7.86652 3.13872 8.51267 3.05243C8.38344 3.06969 8.2542 3.08479 8.12497 3.09989C8.78515 3.01683 9.45282 3.01679 10.1108 3.09976C9.98161 3.08252 9.85238 3.06744 9.72315 3.05235C10.3714 3.14071 11.0047 3.30453 11.6077 3.55463C11.4871 3.50289 11.3622 3.45546 11.2416 3.40372C11.8586 3.65918 12.4391 3.99444 12.9721 4.39871C12.8644 4.31678 12.7535 4.23377 12.6491 4.15075C13.1175 4.51189 13.5482 4.92153 13.909 5.39048C13.8271 5.28267 13.7442 5.17163 13.6613 5.06705C14.0123 5.53062 14.2934 6.03406 14.5152 6.5731C14.4635 6.45236 14.4161 6.3273 14.3644 6.20656C14.6605 6.94504 14.8414 7.72342 14.9437 8.51152C14.9265 8.38215 14.9114 8.25277 14.8963 8.1234C15.0363 9.22307 15.034 10.3357 14.965 11.4439C14.9435 11.8213 15.1513 12.26 15.413 12.522C15.6768 12.7861 16.1108 12.9834 16.4899 12.9704C17.3546 12.9348 17.9621 12.2987 18.0138 11.4448C18.1216 9.61206 18.0701 7.6844 17.4949 5.92699C17.3334 5.43753 17.1374 4.94808 16.8973 4.48777C16.6572 4.02098 16.3514 3.60051 16.0262 3.1887C15.477 2.49229 14.7662 1.91663 14.0339 1.43151C11.2513 -0.401085 7.49388 -0.462317 4.61077 1.17984C1.67713 2.84029 -0.18734 6.15999 0.0149719 9.55377C0.110701 11.1979 0.614623 12.8452 1.55906 14.2004C1.84227 14.6068 2.14593 15.0035 2.48516 15.3647C2.81683 15.7183 3.18511 16.018 3.57064 16.3112C4.23078 16.8103 4.97274 17.1542 5.75136 17.4377C6.55151 17.7255 7.37751 17.8623 8.21534 17.9679C8.99072 18.0649 9.76825 18.0951 10.5458 18.0756C12.1612 18.0432 13.768 17.8296 15.3704 17.6118C15.7097 17.5632 16.0468 17.5169 16.3893 17.4716C16.26 17.4888 16.1308 17.5039 16.0016 17.519C18.0208 17.2763 20.0422 16.9668 22.0831 16.9829C22.6754 16.9894 23.2677 17.0217 23.8568 17.0939C23.7276 17.0766 23.5983 17.0616 23.4691 17.0465C24.2553 17.1478 25.0306 17.3267 25.7672 17.6177C25.6466 17.566 25.5217 17.5186 25.4011 17.4668C25.9449 17.6878 26.4597 17.9702 26.9259 18.3292C26.8183 18.2473 26.7073 18.1643 26.6029 18.0812C27.0713 18.4424 27.4805 18.8736 27.8412 19.3425C27.7594 19.2347 27.6765 19.1237 27.5936 19.0191C27.9974 19.5527 28.3344 20.1317 28.5875 20.7515C28.5358 20.6308 28.4884 20.5057 28.4367 20.385C28.6811 20.992 28.8523 21.6248 28.9384 22.2716C28.9212 22.1423 28.9061 22.0129 28.8911 21.8835C28.974 22.5444 28.9739 23.2128 28.891 23.8716C28.9082 23.7422 28.9233 23.6128 28.9384 23.4834C28.85 24.1325 28.6863 24.7664 28.4364 25.3702C28.4881 25.2494 28.5355 25.1243 28.5872 25.0036C28.3319 25.6213 27.997 26.2025 27.5931 26.7362C27.6749 26.6283 27.7579 26.5173 27.8408 26.4127C27.4305 26.9464 26.9544 27.4229 26.4192 27.8359C26.5269 27.7539 26.6378 27.6709 26.7423 27.5879C26.2092 27.9922 25.6308 28.3297 25.0116 28.5831C25.1322 28.5313 25.2572 28.4839 25.3778 28.4321C24.7714 28.6769 24.1393 28.8483 23.4931 28.9346C23.6224 28.9174 23.7516 28.9023 23.8808 28.8872C23.2207 28.9702 22.553 28.9703 21.895 28.8873C22.0242 28.9045 22.1534 28.9196 22.2827 28.9347C21.6344 28.8463 21.0011 28.6825 20.3981 28.4324C20.5187 28.4842 20.6436 28.5316 20.7642 28.5833C20.1472 28.3279 19.5667 27.9926 19.0337 27.5883C19.1414 27.6703 19.2523 27.7533 19.3567 27.8363C18.8883 27.4752 18.4608 27.0687 18.099 26.5987C18.1808 26.7065 18.2637 26.8176 18.3467 26.9222C17.9827 26.4457 17.6941 25.9196 17.4712 25.3665C17.5229 25.4873 17.5703 25.6123 17.622 25.7331C17.3291 24.9913 17.1515 24.2162 17.0449 23.4259C17.0621 23.5553 17.0772 23.6847 17.0922 23.8141C16.9523 22.7144 16.9492 21.6072 17.0171 20.5043C17.0386 20.1269 16.8308 19.6882 16.5691 19.4262C16.3053 19.1621 15.8713 18.9648 15.4923 18.9778C14.621 19.0328 14.0093 19.6665 13.9608 20.5171Z" fill="white"/>
</svg>
