<svg width="120" height="120" viewBox="0 0 120 120" fill="none" xmlns="http://www.w3.org/2000/svg">
<g opacity="0.2">
<rect x="1.5" y="1.5" width="10.0909" height="10.0909" fill="white" stroke="#585858" stroke-width="3"/>
</g>
<rect y="106.909" width="13.0909" height="13.0909" fill="#64FF00"/>
<rect x="1.5" y="108.409" width="10.0909" height="10.0909" stroke="white" stroke-opacity="0.24" stroke-width="3"/>
<g opacity="0.2">
<rect x="16.7725" y="1.5" width="10.0909" height="10.0909" fill="white" stroke="#585858" stroke-width="3"/>
</g>
<rect x="15.2725" y="30.5454" width="13.0909" height="13.0909" fill="#EB0AFF"/>
<rect x="16.7725" y="32.0454" width="10.0909" height="10.0909" stroke="white" stroke-opacity="0.24" stroke-width="3"/>
<g opacity="0.2">
<rect x="32.0454" y="1.5" width="10.0909" height="10.0909" fill="white" stroke="#585858" stroke-width="3"/>
</g>
<rect x="30.5454" y="76.3636" width="13.0909" height="13.0909" fill="#EDC804"/>
<rect x="32.0454" y="77.8636" width="10.0909" height="10.0909" stroke="white" stroke-opacity="0.24" stroke-width="3"/>
<rect x="45.8179" width="13.0909" height="13.0909" fill="#FC49AB"/>
<rect x="47.3179" y="1.5" width="10.0909" height="10.0909" stroke="white" stroke-opacity="0.24" stroke-width="3"/>
<g opacity="0.2">
<rect x="62.5908" y="1.5" width="10.0909" height="10.0909" fill="white" stroke="#585858" stroke-width="3"/>
</g>
<rect x="61.0908" y="45.8182" width="13.0909" height="13.0909" fill="#5FE8FF"/>
<rect x="62.5908" y="47.3182" width="10.0909" height="10.0909" stroke="white" stroke-opacity="0.24" stroke-width="3"/>
<g opacity="0.2">
<rect x="77.8633" y="1.5" width="10.0909" height="10.0909" fill="white" stroke="#585858" stroke-width="3"/>
</g>
<rect x="76.3633" y="15.2728" width="13.0909" height="13.0909" fill="#64FF00"/>
<rect x="77.8633" y="16.7728" width="10.0909" height="10.0909" stroke="white" stroke-opacity="0.24" stroke-width="3"/>
<rect x="76.3633" y="91.6364" width="13.0909" height="13.0909" fill="#FC49AB"/>
<rect x="77.8633" y="93.1364" width="10.0909" height="10.0909" stroke="white" stroke-opacity="0.24" stroke-width="3"/>
<g opacity="0.2">
<rect x="93.1367" y="1.5" width="10.0909" height="10.0909" fill="white" stroke="#585858" stroke-width="3"/>
</g>
<g opacity="0.2">
<rect x="108.409" y="1.5" width="10.0909" height="10.0909" fill="white" stroke="#585858" stroke-width="3"/>
</g>
<rect x="106.909" y="61.0909" width="13.0909" height="13.0909" fill="#FF9900"/>
<rect x="108.409" y="62.5909" width="10.0909" height="10.0909" stroke="white" stroke-opacity="0.24" stroke-width="3"/>
<g opacity="0.2">
<rect x="1.5" y="16.7728" width="10.0909" height="10.0909" fill="white" stroke="#585858" stroke-width="3"/>
</g>
<g opacity="0.2">
<rect x="1.5" y="32.0454" width="10.0909" height="10.0909" fill="white" stroke="#585858" stroke-width="3"/>
</g>
<g opacity="0.2">
<rect x="1.5" y="47.3182" width="10.0909" height="10.0909" fill="white" stroke="#585858" stroke-width="3"/>
</g>
<g opacity="0.2">
<rect x="1.5" y="62.5909" width="10.0909" height="10.0909" fill="white" stroke="#585858" stroke-width="3"/>
</g>
<g opacity="0.2">
<rect x="1.5" y="77.8636" width="10.0909" height="10.0909" fill="white" stroke="#585858" stroke-width="3"/>
</g>
<g opacity="0.2">
<rect x="1.5" y="93.1364" width="10.0909" height="10.0909" fill="white" stroke="#585858" stroke-width="3"/>
</g>
<g opacity="0.2">
<rect x="16.7725" y="16.7728" width="10.0909" height="10.0909" fill="white" stroke="#585858" stroke-width="3"/>
</g>
<g opacity="0.2">
<rect x="16.7725" y="47.3182" width="10.0909" height="10.0909" fill="white" stroke="#585858" stroke-width="3"/>
</g>
<g opacity="0.2">
<rect x="16.7725" y="62.5909" width="10.0909" height="10.0909" fill="white" stroke="#585858" stroke-width="3"/>
</g>
<g opacity="0.2">
<rect x="16.7725" y="77.8636" width="10.0909" height="10.0909" fill="white" stroke="#585858" stroke-width="3"/>
</g>
<g opacity="0.2">
<rect x="16.7725" y="93.1364" width="10.0909" height="10.0909" fill="white" stroke="#585858" stroke-width="3"/>
</g>
<g opacity="0.2">
<rect x="16.7725" y="108.409" width="10.0909" height="10.0909" fill="white" stroke="#585858" stroke-width="3"/>
</g>
<g opacity="0.2">
<rect x="32.0454" y="16.7728" width="10.0909" height="10.0909" fill="white" stroke="#585858" stroke-width="3"/>
</g>
<g opacity="0.2">
<rect x="32.0454" y="32.0454" width="10.0909" height="10.0909" fill="white" stroke="#585858" stroke-width="3"/>
</g>
<g opacity="0.2">
<rect x="32.0454" y="47.3182" width="10.0909" height="10.0909" fill="white" stroke="#585858" stroke-width="3"/>
</g>
<g opacity="0.2">
<rect x="32.0454" y="62.5909" width="10.0909" height="10.0909" fill="white" stroke="#585858" stroke-width="3"/>
</g>
<g opacity="0.2">
<rect x="32.0454" y="93.1364" width="10.0909" height="10.0909" fill="white" stroke="#585858" stroke-width="3"/>
</g>
<g opacity="0.2">
<rect x="32.0454" y="108.409" width="10.0909" height="10.0909" fill="white" stroke="#585858" stroke-width="3"/>
</g>
<g opacity="0.2">
<rect x="47.3179" y="16.7728" width="10.0909" height="10.0909" fill="white" stroke="#585858" stroke-width="3"/>
</g>
<g opacity="0.2">
<rect x="47.3179" y="32.0454" width="10.0909" height="10.0909" fill="white" stroke="#585858" stroke-width="3"/>
</g>
<g opacity="0.2">
<rect x="47.3179" y="47.3182" width="10.0909" height="10.0909" fill="white" stroke="#585858" stroke-width="3"/>
</g>
<g opacity="0.2">
<rect x="47.3179" y="62.5909" width="10.0909" height="10.0909" fill="white" stroke="#585858" stroke-width="3"/>
</g>
<g opacity="0.2">
<rect x="47.3179" y="77.8636" width="10.0909" height="10.0909" fill="white" stroke="#585858" stroke-width="3"/>
</g>
<g opacity="0.2">
<rect x="47.3179" y="93.1364" width="10.0909" height="10.0909" fill="white" stroke="#585858" stroke-width="3"/>
</g>
<g opacity="0.2">
<rect x="47.3179" y="108.409" width="10.0909" height="10.0909" fill="white" stroke="#585858" stroke-width="3"/>
</g>
<g opacity="0.2">
<rect x="62.5908" y="16.7728" width="10.0909" height="10.0909" fill="white" stroke="#585858" stroke-width="3"/>
</g>
<g opacity="0.2">
<rect x="62.5908" y="32.0454" width="10.0909" height="10.0909" fill="white" stroke="#585858" stroke-width="3"/>
</g>
<g opacity="0.2">
<rect x="62.5908" y="62.5909" width="10.0909" height="10.0909" fill="white" stroke="#585858" stroke-width="3"/>
</g>
<g opacity="0.2">
<rect x="62.5908" y="77.8636" width="10.0909" height="10.0909" fill="white" stroke="#585858" stroke-width="3"/>
</g>
<g opacity="0.2">
<rect x="62.5908" y="93.1364" width="10.0909" height="10.0909" fill="white" stroke="#585858" stroke-width="3"/>
</g>
<g opacity="0.2">
<rect x="62.5908" y="108.409" width="10.0909" height="10.0909" fill="white" stroke="#585858" stroke-width="3"/>
</g>
<g opacity="0.2">
<rect x="77.8633" y="32.0454" width="10.0909" height="10.0909" fill="white" stroke="#585858" stroke-width="3"/>
</g>
<g opacity="0.2">
<rect x="77.8633" y="47.3182" width="10.0909" height="10.0909" fill="white" stroke="#585858" stroke-width="3"/>
</g>
<g opacity="0.2">
<rect x="77.8633" y="62.5909" width="10.0909" height="10.0909" fill="white" stroke="#585858" stroke-width="3"/>
</g>
<g opacity="0.2">
<rect x="77.8633" y="77.8636" width="10.0909" height="10.0909" fill="white" stroke="#585858" stroke-width="3"/>
</g>
<g opacity="0.2">
<rect x="77.8633" y="108.409" width="10.0909" height="10.0909" fill="white" stroke="#585858" stroke-width="3"/>
</g>
<g opacity="0.2">
<rect x="93.1367" y="16.7728" width="10.0909" height="10.0909" fill="white" stroke="#585858" stroke-width="3"/>
</g>
<g opacity="0.2">
<rect x="93.1367" y="32.0454" width="10.0909" height="10.0909" fill="white" stroke="#585858" stroke-width="3"/>
</g>
<g opacity="0.2">
<rect x="93.1367" y="47.3182" width="10.0909" height="10.0909" fill="white" stroke="#585858" stroke-width="3"/>
</g>
<g opacity="0.2">
<rect x="93.1367" y="62.5909" width="10.0909" height="10.0909" fill="white" stroke="#585858" stroke-width="3"/>
</g>
<g opacity="0.2">
<rect x="93.1367" y="77.8636" width="10.0909" height="10.0909" fill="white" stroke="#585858" stroke-width="3"/>
</g>
<g opacity="0.2">
<rect x="93.1367" y="93.1364" width="10.0909" height="10.0909" fill="white" stroke="#585858" stroke-width="3"/>
</g>
<g opacity="0.2">
<rect x="93.1367" y="108.409" width="10.0909" height="10.0909" fill="white" stroke="#585858" stroke-width="3"/>
</g>
<g opacity="0.2">
<rect x="108.409" y="16.7728" width="10.0909" height="10.0909" fill="white" stroke="#585858" stroke-width="3"/>
</g>
<g opacity="0.2">
<rect x="108.409" y="32.0454" width="10.0909" height="10.0909" fill="white" stroke="#585858" stroke-width="3"/>
</g>
<g opacity="0.2">
<rect x="108.409" y="47.3182" width="10.0909" height="10.0909" fill="white" stroke="#585858" stroke-width="3"/>
</g>
<g opacity="0.2">
<rect x="108.409" y="77.8636" width="10.0909" height="10.0909" fill="white" stroke="#585858" stroke-width="3"/>
</g>
<g opacity="0.2">
<rect x="108.409" y="93.1364" width="10.0909" height="10.0909" fill="white" stroke="#585858" stroke-width="3"/>
</g>
<g opacity="0.2">
<rect x="108.409" y="108.409" width="10.0909" height="10.0909" fill="white" stroke="#585858" stroke-width="3"/>
</g>
</svg>
