<svg width="176" height="126" viewBox="0 0 176 126" fill="none" xmlns="http://www.w3.org/2000/svg">
<path d="M90.0995 13.7213H97.8692L83 28.5905L66.9296 12.52L76.9392 2.51049C80.2865 -0.836857 85.7136 -0.836811 89.0608 2.51051C91.6347 5.08433 92.2308 8.89041 90.8429 12.0353L90.0995 13.7213Z" fill="white"/>
<path d="M75.9005 48.2788H68.1309L83 33.4096L99.0704 49.48L89.0607 59.4895C85.7136 62.8368 80.2865 62.8368 76.9392 59.4895C74.3653 56.9158 73.7692 53.1097 75.1571 49.9648L75.9005 48.2788Z" fill="white"/>
<path d="M85.4096 31L100.279 16.1309V23.9008L101.965 23.1569C105.11 21.769 108.916 22.3654 111.489 24.9392C114.837 28.2865 114.837 33.7136 111.489 37.0609L101.48 47.0705L85.4096 31Z" fill="white"/>
<path d="M65.7213 38.0995V45.8692L80.5904 31L64.52 14.9296L54.5105 24.9392C51.1632 28.2865 51.1632 33.7136 54.5105 37.0609C57.0843 39.6347 60.8905 40.2309 64.0353 38.8429L65.7213 38.0995Z" fill="white"/>
<path d="M87.4182 114.21C89.0614 116.054 90.8047 117.825 92.7083 119.413C94.7122 121.076 96.8283 122.627 99.1928 123.742C101.806 124.976 104.451 125.746 107.349 125.954C109.693 126.123 112.138 125.814 114.41 125.241C123.187 123.016 130.409 115.493 131.972 106.523C132.381 104.15 132.541 101.753 132.244 99.3558C132.076 98.0532 131.884 96.7585 131.523 95.4879C131.17 94.2534 130.689 93.0629 130.168 91.8885C128.365 87.8081 125.231 84.3731 121.544 81.908C117.716 79.3508 113.015 78 108.431 78C103.87 78.008 99.4454 79.7035 95.7343 82.2968C92.0071 84.9102 88.8289 88.1568 85.9153 91.636C83.1901 94.9027 80.6051 98.2977 78.0281 101.697C77.427 102.49 76.8338 103.268 76.2247 104.054C76.4331 103.781 76.6455 103.512 76.8579 103.244C73.7198 107.328 70.3854 111.324 66.318 114.491C66.5905 114.283 66.8591 114.07 67.1276 113.858C65.4364 115.172 63.6088 116.311 61.637 117.152C61.9576 117.024 62.2782 116.88 62.5988 116.752C61.1641 117.353 59.6811 117.786 58.1422 117.986C58.4949 117.938 58.8555 117.886 59.2043 117.846C57.6613 118.046 56.0983 118.006 54.5554 117.806C54.908 117.854 55.2687 117.906 55.6174 117.946C53.8741 117.706 52.1708 117.257 50.5477 116.575C50.8683 116.704 51.1889 116.848 51.5095 116.976C49.9264 116.303 48.4316 115.445 47.069 114.403C47.3415 114.611 47.61 114.824 47.8786 115.036C46.4958 113.962 45.2535 112.719 44.1834 111.34C44.3918 111.613 44.6042 111.882 44.8166 112.15C43.7746 110.779 42.9009 109.296 42.2437 107.709C42.3719 108.03 42.5162 108.35 42.6444 108.671C41.9711 107.048 41.5142 105.344 41.2738 103.601C41.3219 103.953 41.374 104.314 41.4141 104.663C41.1857 102.907 41.1857 101.136 41.4141 99.3721C41.366 99.7248 41.3139 100.086 41.2738 100.434C41.5143 98.6907 41.9632 96.9872 42.6444 95.3639C42.5162 95.6845 42.3719 96.0052 42.2437 96.3259C42.917 94.7426 43.7746 93.2475 44.8166 91.8848C44.6082 92.1573 44.3958 92.4259 44.1834 92.6944C45.2575 91.3116 46.4998 90.069 47.8786 88.9988C47.606 89.2072 47.3375 89.4197 47.069 89.6321C48.4396 88.59 49.9224 87.7162 51.5095 87.0589C51.1889 87.1871 50.8683 87.3314 50.5477 87.4597C52.1708 86.7863 53.8741 86.3293 55.6174 86.0889C55.2648 86.137 54.9041 86.1891 54.5554 86.2292C56.0983 86.0288 57.6613 85.9887 59.2043 86.1891C58.8516 86.141 58.4909 86.0889 58.1422 86.0488C59.6571 86.2572 61.1159 86.6701 62.5306 87.2593C62.21 87.131 61.8894 86.9868 61.5687 86.8585C63.4924 87.6802 65.2759 88.7904 66.9311 90.0651C66.6586 89.8566 66.3901 89.6442 66.1215 89.4318C68.426 91.2154 70.49 93.2877 72.4217 95.4761C73.0829 96.2177 74.2853 96.6465 75.2591 96.6465C76.241 96.6465 77.4153 96.2056 78.0966 95.4761C79.6395 93.8007 79.5874 91.488 78.0966 89.8045C74.8904 86.1972 71.2113 82.71 66.8744 80.5135C65.6641 79.9042 64.3896 79.3591 63.0871 78.9503C61.7726 78.5294 60.4219 78.317 59.0513 78.1567C56.7349 77.8841 54.3423 78.1366 52.0779 78.5976C43.4933 80.3693 36.3876 87.2473 34.075 95.6648C31.7025 104.21 34.4037 113.85 41.0885 119.782C44.3227 122.66 48.3225 124.785 52.599 125.546C53.8814 125.775 55.1839 125.947 56.4865 125.987C57.761 126.027 59.0033 125.899 60.2658 125.727C62.422 125.426 64.4418 124.684 66.4176 123.762C68.4416 122.809 70.2331 121.526 71.9884 120.163C73.6115 118.9 75.1145 117.51 76.5252 116.027C79.4709 112.96 82.0638 109.573 84.6409 106.187C85.1819 105.465 85.723 104.752 86.2761 104.03C86.0677 104.303 85.8552 104.571 85.6428 104.84C88.9493 100.631 92.1353 96.2942 95.9632 92.5265C97.0773 91.4363 98.2396 90.3941 99.4699 89.4322C99.1974 89.6406 98.9289 89.853 98.6604 90.0655C100.312 88.7908 102.087 87.6806 103.999 86.8509C103.678 86.9792 103.357 87.1234 103.037 87.2517C104.46 86.6505 105.942 86.2176 107.477 86.0172C107.125 86.0653 106.764 86.1174 106.415 86.1575C107.958 85.9571 109.521 85.9972 111.064 86.1976C110.711 86.1495 110.351 86.0974 110.002 86.0573C111.745 86.2978 113.449 86.7467 115.072 87.4281C114.751 87.2998 114.431 87.1555 114.11 87.0272C115.693 87.7006 117.188 88.5584 118.55 89.6005C118.278 89.3921 118.009 89.1796 117.741 88.9672C119.124 90.0414 120.366 91.2839 121.436 92.6628C121.228 92.3903 121.015 92.1217 120.803 91.8532C121.845 93.2239 122.719 94.707 123.376 96.2942C123.248 95.9736 123.103 95.6529 122.975 95.3323C123.648 96.9556 124.105 98.6591 124.346 100.403C124.298 100.05 124.245 99.6892 124.205 99.3404C124.434 101.096 124.434 102.868 124.205 104.631C124.253 104.279 124.306 103.918 124.346 103.569C124.105 105.313 123.656 107.016 122.975 108.639C123.103 108.319 123.248 107.998 123.376 107.677C122.703 109.261 121.845 110.756 120.803 112.119C121.011 111.846 121.224 111.577 121.436 111.309C120.362 112.692 119.12 113.934 117.741 115.004C118.013 114.796 118.282 114.584 118.55 114.371C117.18 115.413 115.697 116.287 114.11 116.944C114.431 116.816 114.751 116.672 115.072 116.544C113.449 117.217 111.745 117.674 110.002 117.914C110.355 117.866 110.715 117.814 111.064 117.774C109.521 117.975 107.97 118.015 106.423 117.814C106.776 117.862 107.137 117.914 107.485 117.954C105.922 117.746 104.407 117.305 102.965 116.692C103.285 116.82 103.606 116.964 103.927 117.093C102.003 116.259 100.231 115.149 98.5642 113.878C98.8367 114.087 99.1052 114.299 99.3737 114.511C97.0693 112.728 95.0053 110.676 93.0816 108.499C92.4203 107.758 91.218 107.329 90.2441 107.329C89.2623 107.329 88.088 107.77 87.4067 108.499C85.8877 110.223 85.9273 112.539 87.4182 114.21Z" fill="white"/>
<path d="M0 126V78H8.86557V121.733L4.99938 117.933H31.7294V126H0Z" fill="white"/>
<path d="M137.938 126V78H159.869C163.157 78 166.001 78.6222 168.401 79.8667C170.801 81.1111 172.667 82.8444 174 85.0667C175.333 87.2444 176 89.7778 176 92.6667C176 95.6 175.333 98.1778 174 100.4C172.667 102.622 170.778 104.356 168.334 105.6C165.89 106.8 162.979 107.4 159.602 107.4H144.204V99.5333H159.202C161.557 99.5333 163.424 98.9556 164.801 97.8C166.179 96.6 166.868 94.9111 166.868 92.7333C166.868 90.4667 166.201 88.7556 164.868 87.6C163.535 86.4444 161.713 85.8667 159.402 85.8667H144.271L146.804 84V126H137.938Z" fill="white"/>
</svg>
