<svg width="220" height="50" viewBox="0 0 220 50" fill="none" xmlns="http://www.w3.org/2000/svg" alt="Loops">
<path fill-rule="evenodd" clip-rule="evenodd" d="M187.259 46.669C190.545 48.7558 194.874 49.7992 200.246 49.7992C204.242 49.7992 207.639 49.222 210.436 48.0676C213.278 46.9132 215.431 45.2926 216.896 43.2058C218.406 41.0746 219.161 38.566 219.161 35.68C219.161 31.4176 217.895 28.0432 215.365 25.5568C212.878 23.0704 209.26 21.5608 204.509 21.028L195.984 20.0956C193.72 19.8736 192.077 19.252 191.056 18.2308C190.034 17.1652 189.524 15.8776 189.524 14.368C189.524 12.592 190.279 11.1046 191.788 9.90578C193.298 8.70698 195.496 8.10758 198.382 8.10758C201.046 8.10758 203.266 8.70698 205.042 9.90578C206.818 11.1046 208.127 12.814 208.971 15.034L217.163 12.1702C215.92 8.52938 213.7 5.64338 210.503 3.51218C207.35 1.33658 203.31 0.248779 198.382 0.248779C194.918 0.248779 191.855 0.892581 189.191 2.18018C186.571 3.46778 184.529 5.19938 183.064 7.37498C181.598 9.55058 180.866 11.9482 180.866 14.5678C180.866 18.697 182.131 21.9382 184.662 24.2914C187.193 26.6446 190.523 28.0432 194.652 28.4872L204.109 29.4862C206.196 29.7082 207.794 30.3298 208.904 31.351C210.014 32.3278 210.569 33.7708 210.569 35.68C210.569 37.5448 209.726 39.0544 208.039 40.2088C206.351 41.3632 203.754 41.9404 200.246 41.9404C197.272 41.9404 194.807 41.2744 192.854 39.9424C190.9 38.6104 189.502 36.7456 188.658 34.348L180 37.345C181.554 41.4298 183.974 44.5378 187.259 46.669ZM0 1V49H31.7294V40.9333H8.86557V1H0ZM92.7083 42.4128C90.8047 40.8255 89.0614 39.0539 87.4182 37.2101C85.9273 35.5387 85.8877 33.2226 87.4067 31.499C88.088 30.7696 89.2623 30.3287 90.2441 30.3287C91.218 30.3287 92.4203 30.7575 93.0816 31.499C94.8361 33.4841 96.7073 35.3658 98.7712 37.0346C100.287 38.1715 101.889 39.1733 103.614 39.9541C104.69 40.3662 105.802 40.6803 106.943 40.8726C108.126 40.9854 109.312 40.9629 110.493 40.8407C111.902 40.6125 113.282 40.2415 114.612 39.7278C115.9 39.1494 117.117 38.4277 118.258 37.5897C119.266 36.7549 120.194 35.8255 121.03 34.8149C121.883 33.6539 122.605 32.4018 123.198 31.0849C123.694 29.7887 124.048 28.4453 124.27 27.0746C124.412 25.6839 124.412 24.2897 124.271 22.904C124.042 21.4974 123.672 20.1196 123.159 18.7921C122.581 17.5039 121.859 16.2869 121.021 15.1456C120.187 14.138 119.257 13.2092 118.247 12.3729C117.086 11.5203 115.834 10.7978 114.517 10.2054C113.218 9.70734 111.871 9.35328 110.497 9.13136C109.307 9.00837 108.109 8.98594 106.92 9.10048C105.807 9.28765 104.722 9.59495 103.669 9.9973C102.006 10.7531 100.447 11.7196 98.9847 12.8185C97.9326 13.671 96.9297 14.5806 95.9632 15.5265C92.781 18.6587 90.0424 22.1841 87.3095 25.7023L87.3094 25.7024L87.3093 25.7025C86.9569 26.1562 86.6045 26.6099 86.2512 27.0626L86.2498 27.0644C86.0478 27.3232 85.8455 27.5817 85.6428 27.8397L85.6442 27.838L85.6451 27.8368C85.8422 27.5876 86.0394 27.3384 86.2333 27.0859C85.695 27.7885 85.1679 28.4837 84.6409 29.1865C82.0638 32.5734 79.4709 35.9604 76.5252 39.0267C75.1144 40.5097 73.6115 41.9005 71.9884 43.1631C70.2331 44.5259 68.4416 45.8085 66.4176 46.7625C64.4418 47.6844 62.422 48.4259 60.2658 48.7266C59.0033 48.8989 57.761 49.0272 56.4865 48.9871C55.1839 48.947 53.8814 48.7747 52.599 48.5462C48.3225 47.7846 44.3227 45.6603 41.0885 42.7824C34.4037 36.8504 31.7025 27.2103 34.075 18.6648C36.3876 10.2473 43.4933 3.36926 52.0779 1.59759C54.3423 1.13664 56.7349 0.884127 59.0513 1.15668C60.4219 1.31701 61.7726 1.52945 63.0871 1.95031C64.3896 2.35911 65.6641 2.90423 66.8744 3.51348C71.2113 5.70996 74.8904 9.19718 78.0966 12.8045C79.5874 14.488 79.6395 16.8007 78.0966 18.4761C77.4153 19.2056 76.241 19.6465 75.2591 19.6465C74.2853 19.6465 73.0829 19.2177 72.4217 18.4761C70.6494 16.4683 68.7658 14.5583 66.6873 12.8793C65.222 11.7737 63.6572 10.7997 61.9847 10.0416C60.9043 9.62984 59.7978 9.32134 58.6598 9.1283C57.4847 9.01815 56.3007 9.04132 55.1254 9.16267C53.7168 9.39096 52.337 9.76192 51.0076 10.2755C49.7195 10.8539 48.5027 11.5756 47.3615 12.4135C46.3539 13.2484 45.4253 14.1779 44.589 15.1885C43.7365 16.3495 43.0141 17.6016 42.4218 18.9186C41.9251 20.2147 41.5716 21.558 41.3496 22.9287C41.2075 24.3194 41.2072 25.7135 41.3487 27.0993C41.577 28.5058 41.9476 29.8836 42.4603 31.2111C43.0386 32.4993 43.7602 33.7163 44.5981 34.8576C45.4328 35.8653 46.3622 36.7941 47.3727 37.6305C48.5336 38.483 49.7855 39.2055 51.1023 39.7979C52.4016 40.296 53.7483 40.65 55.1225 40.8719C56.3131 40.995 57.5126 41.0174 58.7028 40.9025C59.8408 40.7114 60.9481 40.3953 62.0281 39.9807C63.7286 39.2139 65.3201 38.2281 66.8078 37.1029C70.6547 34.0012 73.8467 30.1631 76.8579 26.2439L76.8573 26.2445C76.7298 26.4059 76.6022 26.5672 76.4755 26.7293C76.9973 26.0534 77.5098 25.381 78.0281 24.6967C80.6051 21.2977 83.1901 17.9027 85.9153 14.636C88.8289 11.1568 92.0071 7.9102 95.7343 5.29681C99.4454 2.70354 103.87 1.00802 108.431 1C113.015 1 117.716 2.35076 121.544 4.90802C125.231 7.37314 128.365 10.8081 130.168 14.8885C130.689 16.0629 131.17 17.2534 131.523 18.4879C131.884 19.7585 132.076 21.0532 132.244 22.3558C132.541 24.7528 132.381 27.1497 131.972 29.5225C130.409 38.4927 123.187 46.0161 114.41 48.2407C112.138 48.8139 109.693 49.1225 107.349 48.9542C104.451 48.7458 101.806 47.9762 99.1928 46.7417C96.8282 45.6274 94.7122 44.0762 92.7083 42.4128ZM76.2247 27.0535C76.3085 26.9453 76.3921 26.8373 76.4755 26.7293C76.3914 26.8369 76.3077 26.9449 76.2247 27.0535ZM62.5988 39.7516C62.5124 39.7878 62.4259 39.8234 62.3392 39.8583C62.4257 39.822 62.5123 39.7862 62.5988 39.7516ZM58.1422 40.9861L58.36 40.9561C58.2875 40.9666 58.2149 40.9766 58.1422 40.9861ZM58.9536 40.8763C59.0376 40.8656 59.1213 40.8553 59.2043 40.8458C59.1208 40.8567 59.0372 40.8668 58.9536 40.8763ZM50.5477 39.5752C50.6343 39.6099 50.7209 39.6457 50.8074 39.682C50.7206 39.6471 50.634 39.6115 50.5477 39.5752ZM47.608 37.8223C47.6976 37.8943 47.7878 37.9655 47.8786 38.0361L47.8769 38.0348C47.7873 37.9639 47.6977 37.893 47.608 37.8223ZM42.6444 31.671C42.6177 31.6064 42.5912 31.5417 42.5651 31.4769C42.592 31.5416 42.6186 31.6063 42.6444 31.671ZM41.4141 27.6629C41.4009 27.5616 41.3885 27.4604 41.3769 27.359C41.39 27.461 41.4026 27.5624 41.4141 27.6629ZM42.6444 18.3639C42.6098 18.4505 42.574 18.537 42.5377 18.6236C42.5726 18.5368 42.6082 18.4502 42.6444 18.3639ZM44.3969 15.4241C44.325 15.5136 44.2539 15.6037 44.1834 15.6944L44.1842 15.6934C44.2552 15.6037 44.3261 15.514 44.3969 15.4241ZM50.5477 10.4597C50.6122 10.4329 50.6769 10.4065 50.7417 10.3804C50.677 10.4073 50.6123 10.4338 50.5477 10.4597ZM54.5554 9.22918C54.6589 9.21574 54.7624 9.20302 54.8661 9.19104C54.7618 9.20453 54.6581 9.21738 54.5554 9.22918ZM62.5306 10.2593C62.4591 10.2307 62.3876 10.2013 62.3161 10.1715C62.3877 10.2003 62.4592 10.2296 62.5306 10.2593ZM66.5939 12.804C66.4366 12.681 66.28 12.5572 66.1235 12.4333L66.1216 12.4318C66.2801 12.5545 66.4376 12.6786 66.5939 12.804ZM103.037 10.2517C103.14 10.2082 103.243 10.1656 103.347 10.1239C103.243 10.1674 103.14 10.2104 103.037 10.2517ZM107.477 9.0172L107.272 9.04544C107.34 9.03557 107.409 9.02615 107.477 9.0172ZM106.666 9.12705C106.582 9.13773 106.498 9.14795 106.415 9.15749C106.499 9.14664 106.582 9.1365 106.666 9.12705ZM115.072 10.4281C114.985 10.3934 114.899 10.3577 114.812 10.3213C114.899 10.3562 114.986 10.3918 115.072 10.4281ZM118.011 12.1805C117.922 12.1087 117.832 12.0376 117.741 11.9672L117.744 11.9698C117.786 12.0029 117.828 12.036 117.87 12.0691C117.917 12.1063 117.964 12.1434 118.011 12.1805ZM122.975 18.3323L122.994 18.3785C123.006 18.4061 123.017 18.4338 123.028 18.4614C123.037 18.483 123.046 18.5045 123.054 18.5261C123.041 18.4941 123.028 18.462 123.015 18.43C123.001 18.3974 122.988 18.3648 122.975 18.3323ZM124.205 22.3404C124.219 22.4416 124.231 22.5429 124.243 22.6441C124.229 22.5422 124.217 22.4408 124.205 22.3404ZM122.975 31.6394C123.01 31.5529 123.045 31.4664 123.082 31.3799C123.047 31.4666 123.011 31.5531 122.975 31.6394ZM121.222 34.5795C121.294 34.4899 121.366 34.3997 121.436 34.3089L121.435 34.3106L121.339 34.432C121.3 34.4811 121.261 34.5303 121.222 34.5795ZM115.072 39.5436L115.001 39.5728C114.96 39.5896 114.919 39.6063 114.878 39.6229C114.943 39.596 115.007 39.5695 115.072 39.5436ZM111.064 40.7741C110.96 40.7876 110.856 40.8004 110.752 40.8124C110.857 40.7989 110.961 40.786 111.064 40.7741ZM102.965 39.6919C103.081 39.7383 103.197 39.7868 103.313 39.8359C103.196 39.789 103.08 39.741 102.965 39.6919ZM98.8878 37.1286C99.0486 37.2575 99.2106 37.3851 99.3737 37.5114L99.3733 37.5111C99.2117 37.3833 99.0502 37.2555 98.8878 37.1286ZM137.938 49V1H159.869C163.157 1 166.001 1.62222 168.401 2.86667C170.801 4.11111 172.667 5.84444 174 8.06667C175.333 10.2444 176 12.7778 176 15.6667C176 18.6 175.333 21.1778 174 23.4C172.667 25.6222 170.778 27.3556 168.334 28.6C165.89 29.8 162.979 30.4 159.602 30.4H146.804V49H137.938ZM159.202 22.5333H146.804V8.86666H159.402C161.713 8.86666 163.535 9.44444 164.868 10.6C166.201 11.7556 166.868 13.4667 166.868 15.7333C166.868 17.9111 166.179 19.6 164.801 20.8C163.424 21.9556 161.557 22.5333 159.202 22.5333Z" fill="white"/>
</svg>
